<?xml version="1.0" standalone="no"?>
<!DOCTYPE svg PUBLIC "-//W3C//DTD SVG 20010904//EN"
 "http://www.w3.org/TR/2001/REC-SVG-20010904/DTD/svg10.dtd">
<svg version="1.0" xmlns="http://www.w3.org/2000/svg"
 width="700.000000pt" height="700.000000pt" viewBox="0 0 700.000000 700.000000"
 preserveAspectRatio="xMidYMid meet">
<metadata>
Created by potrace 1.11, written by Peter Selinger 2001-2013
</metadata>
<g transform="translate(0.000000,700.000000) scale(0.100000,-0.100000)"
fill="#000000" stroke="none">
<path d="M3298 6995 c-1 -1 -41 -5 -88 -9 -100 -7 -225 -22 -295 -36 -27 -5
-61 -12 -75 -14 -191 -35 -488 -121 -627 -182 -18 -8 -48 -21 -67 -29 -19 -8
-37 -15 -41 -15 -17 0 -317 -158 -422 -222 -134 -81 -319 -212 -394 -278 -10
-8 -42 -35 -73 -60 -60 -50 -307 -296 -375 -375 -69 -81 -232 -302 -298 -405
-121 -189 -242 -434 -328 -665 -36 -95 -110 -339 -120 -394 -3 -14 -7 -37 -10
-51 -18 -79 -44 -223 -50 -275 -4 -33 -9 -69 -11 -80 -19 -100 -26 -567 -11
-715 37 -361 114 -678 239 -990 52 -129 168 -368 213 -439 14 -23 25 -43 25
-46 0 -14 207 -310 286 -410 112 -140 386 -415 529 -529 102 -81 333 -242 415
-289 163 -93 376 -197 520 -252 236 -91 590 -182 782 -201 35 -3 66 -8 69 -9
15 -10 227 -20 409 -20 187 0 339 7 430 21 358 53 613 121 900 238 275 113
573 284 786 451 28 22 68 54 90 70 81 63 259 229 354 332 448 483 747 1070
874 1714 14 70 28 155 32 190 3 35 8 67 10 70 24 42 24 707 -1 823 -2 12 -7
44 -10 71 -21 171 -94 478 -158 660 -206 587 -562 1106 -1037 1516 -129 111
-433 329 -460 329 -5 0 -10 5 -10 10 0 6 -5 10 -10 10 -6 0 -29 12 -52 26
-127 80 -445 222 -643 287 -262 85 -408 116 -765 163 -47 6 -526 15 -532 9z
m397 -370 c55 -3 114 -7 130 -9 17 -2 55 -7 86 -10 31 -4 65 -8 75 -10 11 -2
39 -7 64 -11 25 -4 110 -23 190 -42 709 -171 1333 -586 1774 -1178 197 -264
329 -513 444 -835 39 -108 104 -343 117 -420 3 -19 7 -46 10 -60 7 -40 14 -82
20 -127 3 -24 7 -61 10 -82 11 -86 15 -183 16 -341 0 -174 -2 -213 -26 -420
-6 -54 -17 -125 -20 -130 -2 -3 -6 -25 -10 -50 -4 -25 -8 -47 -10 -51 -2 -3
-7 -21 -10 -40 -13 -77 -46 -193 -95 -334 -142 -411 -373 -793 -670 -1109
-185 -197 -361 -345 -581 -490 -64 -42 -120 -76 -124 -76 -5 0 -16 -6 -24 -14
-41 -36 -300 -159 -461 -219 -91 -34 -304 -101 -352 -111 -137 -29 -283 -56
-328 -61 -30 -3 -66 -8 -80 -10 -106 -16 -448 -22 -566 -10 -32 3 -84 8 -114
11 -87 9 -121 13 -175 24 -27 5 -67 12 -89 15 -21 3 -42 7 -46 10 -3 2 -22 7
-41 10 -153 26 -454 130 -654 226 -768 368 -1360 1038 -1628 1840 -32 96 -87
305 -102 384 -30 172 -39 234 -51 385 -6 74 -6 410 0 455 2 17 7 59 11 95 3
36 8 76 10 90 12 93 18 126 20 130 2 3 6 26 10 50 11 72 71 297 109 405 55
157 63 178 107 276 241 535 638 1003 1124 1326 270 179 550 310 862 403 111
33 364 86 456 95 32 4 68 8 80 11 12 2 83 7 157 10 74 4 136 7 137 8 3 2 129
-2 238 -9z"/>
<path d="M3275 5293 c-65 -28 -97 -71 -160 -220 -32 -76 -71 -165 -85 -198
-15 -33 -49 -109 -75 -170 -26 -60 -53 -123 -60 -140 -7 -16 -41 -95 -75 -175
-69 -160 -90 -208 -113 -260 -9 -20 -65 -150 -125 -290 -60 -140 -176 -408
-257 -595 -81 -187 -190 -439 -242 -560 -52 -121 -106 -245 -120 -275 -32 -70
-35 -127 -8 -143 37 -22 58 -23 330 -22 372 2 348 -13 470 302 84 215 101 252
133 286 59 63 38 61 597 61 505 0 510 0 552 -22 58 -30 82 -67 142 -217 108
-271 133 -324 169 -358 51 -48 86 -52 391 -52 l281 1 27 26 c24 24 25 30 16
65 -6 21 -165 391 -353 823 -188 432 -393 904 -456 1050 -63 146 -119 274
-124 285 -6 11 -77 174 -159 363 -82 188 -156 354 -165 367 -9 14 -35 37 -58
53 -41 27 -42 27 -237 29 -165 2 -202 0 -236 -14z m230 -965 c19 -28 303 -745
306 -773 3 -43 -2 -56 -30 -73 -25 -15 -59 -17 -307 -16 -224 0 -283 3 -301
14 -48 31 -43 51 116 459 83 210 155 389 162 397 17 20 36 17 54 -8z"/>
</g>
</svg>
